<svg xmlns="http://www.w3.org/2000/svg" width="208" height="59" viewBox="0 0 208 59" fill="none">
  <g clip-path="url(#a)">
    <path d="M78.74 58.768V49.71h1.872c1.354 0 2.331.108 2.946.33.874.307 1.565.841 2.056 1.602.497.761.74 1.663.74 2.715q.001 1.36-.589 2.397c-.394.69-.9 1.198-1.527 1.527q-.937.493-2.628.491h-2.876zm.868-.853h1.047q1.871.002 2.601-.232a3 3 0 0 0 1.603-1.198c.388-.578.583-1.28.583-2.116s-.21-1.62-.632-2.24c-.42-.62-1.009-1.042-1.764-1.274q-.851-.258-2.796-.259h-.636v7.32zm8.402.853V49.71h.194l6.018 6.941V49.71h.89v9.057h-.2l-5.968-6.86v6.86zm12.477-9.058 4.215 9.058h-.977l-1.425-2.98h-3.896l-1.408 2.98h-1.01l4.274-9.057zm-.113 1.922-1.55 3.277h3.093zM.939 49.71H.038v9.058h.9zm1.765 9.058V49.71h.194l6.022 6.941V49.71h.89v9.057h-.204l-5.969-6.86v6.86zm8.866-8.172v-.885h4.954v.885h-2.019v8.172h-.917v-8.172zm6.616-.886h5.18v.886h-4.279v2.84h4.242v.884h-4.242v3.563h4.242v.885h-5.143zm15.628 1.523-.701.664a5.3 5.3 0 0 0-1.657-1.128 4.4 4.4 0 0 0-1.754-.383 4.16 4.16 0 0 0-2.024.523c-.642.35-1.138.82-1.489 1.42q-.527.898-.529 1.894c0 .664.184 1.328.55 1.943a3.9 3.9 0 0 0 1.512 1.447q.965.527 2.115.529 1.394-.002 2.358-.788a3.12 3.12 0 0 0 1.144-2.046h-2.881v-.874h3.896c-.01 1.398-.421 2.51-1.247 3.335q-1.23 1.237-3.297 1.236-2.508-.002-3.972-1.71a4.56 4.56 0 0 1-1.128-3.05q0-1.287.648-2.397a4.6 4.6 0 0 1 1.77-1.732q1.124-.625 2.547-.626 1.152.001 2.164.415c.675.275 1.338.723 1.98 1.333m1.884-1.528h1.802q1.506.002 2.04.125.801.186 1.311.794.502.604.502 1.495c0 .49-.113.928-.345 1.3a2.16 2.16 0 0 1-.993.848q-.648.291-1.781.291l3.254 4.205h-1.117l-3.254-4.205h-.513v4.205h-.901V49.71zm.9.886v3.082l1.56.01c.605 0 1.047-.059 1.339-.172q.437-.17.68-.55.242-.38.242-.848c0-.313-.08-.577-.248-.826a1.36 1.36 0 0 0-.647-.534c-.265-.108-.713-.162-1.328-.162zm10.254-.886 4.215 9.058h-.977l-1.425-2.98h-3.896l-1.408 2.98h-1.01l4.274-9.057zm-.113 1.922-1.549 3.277h3.092zm3.902-1.037v-.885h4.953v.885h-2.018v8.172h-.923v-8.172zm6.713-.886h5.18v.886h-4.273v2.84h4.241v.884h-4.241v3.563h4.241v.885H57.36zm6.945 9.058V49.71h1.872c1.355 0 2.332.108 2.947.33.874.307 1.565.841 2.056 1.602.496.761.74 1.663.74 2.715q.001 1.36-.59 2.397-.588 1.034-1.526 1.527t-2.628.491h-2.877zm.863-.853h1.047q1.871.002 2.601-.232a3 3 0 0 0 1.603-1.198c.388-.578.583-1.28.583-2.116s-.21-1.62-.632-2.24q-.63-.928-1.764-1.274-.851-.258-2.796-.259h-.636v7.32zm44.305-7.319v-.885h4.954v.885h-2.013v8.172h-.928v-8.172zm6.773-1.02h5.18v.89h-4.279v2.84h4.241v.885h-4.241v3.557h4.241v.89h-5.142zm15.482 1.814-.712.55a3.9 3.9 0 0 0-1.419-1.166 4.14 4.14 0 0 0-1.819-.4c-.723 0-1.387.173-2.002.519a3.7 3.7 0 0 0-1.43 1.398q-.508.874-.507 1.975c0 1.107.377 2.024 1.133 2.764q1.134 1.108 2.86 1.106 1.901 0 3.178-1.49l.713.546a4.56 4.56 0 0 1-1.689 1.333q-1.013.47-2.261.47-2.371-.002-3.746-1.582-1.149-1.334-1.149-3.228 0-1.989 1.392-3.346 1.391-1.36 3.486-1.36c.842 0 1.608.167 2.288.502s1.242.804 1.673 1.408m1.36-1.679h.907v3.8h4.603v-3.8h.901v9.058h-.901v-4.372h-4.603v4.372h-.907zm8.175 9.058V49.71h.195l6.017 6.941V49.71h.896v9.057h-.205l-5.969-6.86v6.86zm13.163-9.284q2.054.001 3.437 1.371 1.383 1.377 1.382 3.384c0 1.339-.459 2.45-1.382 3.374q-1.384 1.386-3.367 1.387c-1.322 0-2.472-.459-3.395-1.376-.922-.918-1.381-2.035-1.381-3.342 0-.868.21-1.678.631-2.418a4.53 4.53 0 0 1 1.722-1.743 4.6 4.6 0 0 1 2.358-.632m.032.875q-1.005-.001-1.904.524a3.76 3.76 0 0 0-1.404 1.414 3.97 3.97 0 0 0-.507 1.98c0 1.075.373 1.987 1.117 2.726.745.745 1.641 1.112 2.693 1.112q1.051-.002 1.948-.513a3.67 3.67 0 0 0 1.398-1.398 3.94 3.94 0 0 0 .502-1.97c0-.723-.168-1.37-.502-1.954a3.74 3.74 0 0 0-1.414-1.397 3.8 3.8 0 0 0-1.932-.524m6.395-.654h.906v8.184h3.476v.874h-4.382zm9.492-.226q2.055.001 3.438 1.371 1.382 1.377 1.381 3.384c0 1.339-.459 2.45-1.381 3.374-.918.923-2.046 1.387-3.368 1.387s-2.471-.459-3.394-1.376c-.923-.918-1.382-2.035-1.382-3.342 0-.868.211-1.678.632-2.418a4.53 4.53 0 0 1 1.721-1.743 4.6 4.6 0 0 1 2.359-.632m.037.875q-1.005-.001-1.905.524-.9.524-1.403 1.414a3.97 3.97 0 0 0-.507 1.98c0 1.075.372 1.987 1.117 2.726.745.745 1.641 1.112 2.693 1.112q1.05-.002 1.948-.513a3.67 3.67 0 0 0 1.398-1.398 3.94 3.94 0 0 0 .502-1.97c0-.723-.168-1.37-.502-1.954a3.8 3.8 0 0 0-1.414-1.397 3.8 3.8 0 0 0-1.932-.524m15.239.869-.701.664a5.3 5.3 0 0 0-1.657-1.128 4.4 4.4 0 0 0-1.754-.383q-1.06-.002-2.024.523c-.642.35-1.138.82-1.489 1.42q-.528.898-.529 1.894c0 .664.184 1.328.545 1.943a3.86 3.86 0 0 0 1.511 1.447q.964.527 2.116.529 1.393-.002 2.358-.788a3.12 3.12 0 0 0 1.144-2.046h-2.882v-.874h3.896c-.01 1.398-.421 2.51-1.246 3.335q-1.231 1.237-3.297 1.236-2.508-.002-3.972-1.71a4.56 4.56 0 0 1-1.128-3.05q0-1.287.648-2.397a4.6 4.6 0 0 1 1.77-1.732q1.124-.625 2.547-.626 1.15.001 2.164.415c.674.275 1.338.723 1.98 1.333m2.79-1.528h-.901v9.058h.901zm1.684 0h5.181v.886h-4.28v2.84h4.242v.884h-4.242v3.563h4.242v.885h-5.143zm5.855 7.374.766-.464q.811 1.496 1.873 1.495.455 0 .852-.21c.265-.141.47-.335.61-.573a1.46 1.46 0 0 0 .211-.755q0-.453-.308-.896c-.28-.4-.799-.886-1.549-1.452q-1.133-.858-1.408-1.236a2.27 2.27 0 0 1-.48-1.388c0-.394.097-.755.28-1.08q.282-.483.799-.766.51-.281 1.117-.28c.426 0 .826.102 1.198.318.372.21.761.6 1.176 1.166l-.739.561q-.511-.678-.869-.896a1.5 1.5 0 0 0-.782-.215q-.55.001-.896.334a1.1 1.1 0 0 0-.345.82q.001.3.124.573.123.274.448.604.176.17 1.171.907c.782.578 1.316 1.096 1.608 1.544q.437.68.437 1.36c0 .658-.248 1.225-.745 1.71q-.743.73-1.818.73a2.64 2.64 0 0 1-1.495-.443q-.67-.437-1.236-1.474m-73.78-14.082-1.473-.064c-10.162-.454-19.972-8.669-29.146-17.04C82.07 17.24 72.275 8.29 61.994 7.502q-.722-.055-1.451-.054c-9.072 0-17.652 6.58-25.66 13.316l-.966.837-.912-.837c-.486-.442-.972-.89-1.452-1.333l-1.117-1.085 1.457-1.328C40.921 8.776 51.45-.005 62.038.21c10.852.227 20.5 8.448 29.836 16.393l.049.043c9.147 7.788 18.618 15.858 28.801 15.669l1.435-.027zM135.764.259h-8.09v42.764h8.09zm4.759 0h9.249c4.674 0 8.689.41 12.034 1.225 3.346.82 6.147 2.132 8.392 3.935 2.579 2.051 4.517 4.399 5.806 7.065q1.936 3.992 1.938 8.76c0 3.012-.583 5.835-1.743 8.485q-1.742 3.973-5.078 6.936c-2.218 1.976-4.97 3.53-8.241 4.664s-7.01 1.694-11.23 1.694h-11.122V.26zm7.625 39.623h2.234q3.871-.002 7.264-1.193t5.904-3.54q2.507-2.349 3.971-5.797c.966-2.3 1.452-4.95 1.452-7.962 0-2.623-.459-5.041-1.382-7.243-.917-2.202-2.196-4.102-3.831-5.69-1.635-1.591-3.589-2.822-5.861-3.702q-3.414-1.319-7.436-1.317h-2.309v36.444z" fill="#004B87"/>
    <path d="M202.053.259v4.804h-10.798v37.96h-8.09V5.063h-10.798V.259z" fill="#004B87"/>
    <path d="M120.734.275c-8.014.065-15.315 6.558-22.379 12.836-1.64 1.457-3.335 2.963-4.975 4.323l-.265.221c1.123.955 2.256 1.91 3.39 2.845a216 216 0 0 0 4.095-3.703c6.46-5.927 13.14-12.058 20.237-12.484l1.36-.081V.259l-1.457.01z" fill="url(#b)"/>
    <path d="M87.109 23.123C79.09 29.983 70.467 36.68 60.931 36.68h-.092c-9.735-.064-18.499-7.286-26.923-15.086l-.912-.83c-.485-.443-.965-.886-1.451-1.334l-1.117-1.085C21.499 9.964 12.25 1.403 1.63.184L.027 0v11.022l1.37.07c10.292.523 19.681 8.69 28.764 16.586C39.927 36.174 49.156 44.2 59.808 44.2q.524 0 1.057-.027c11.225-.604 21.338-10.088 29.465-17.71l.912-.852a635 635 0 0 0-3.416-3.104l-.713.61z" fill="url(#c)"/>
    <path d="M24.937 23.199c-1.646 1.397-3.303 2.887-4.905 4.334-6.093 5.494-12.39 11.173-18.742 11.955L0 39.645v4.032l1.581-.12c7.722-.588 14.727-6.698 21.5-12.602 1.878-1.641 3.658-3.19 5.45-4.631l.032-.027a275 275 0 0 0-3.626-3.099" fill="#005088"/>
    <path d="M203.413.68h-.788V.259h2.072V.68h-.788v2.197h-.496zm1.646-.421h.755l.707 2.008h.016l.707-2.008H208v2.618h-.497V.69h-.01l-.761 2.186h-.4L205.571.69h-.01v2.186h-.497V.259z" fill="#004B87"/>
  </g>
  <defs>
    <linearGradient id="b" x1="9.438" y1="10.379" x2="117.226" y2="10.379" gradientUnits="userSpaceOnUse">
      <stop stop-color="#A93A95"/>
      <stop offset=".94" stop-color="#05DFDE"/>
    </linearGradient>
    <linearGradient id="c" x1="18.628" y1="22.103" x2="126.411" y2="22.103" gradientUnits="userSpaceOnUse">
      <stop stop-color="#783AEF"/>
      <stop offset=".94" stop-color="#02FFFE"/>
    </linearGradient>
    <clipPath id="a">
      <path fill="#fff" d="M0 0h208v59H0z"/>
    </clipPath>
  </defs>
</svg>
