<?xml version="1.0" encoding="UTF-8"?><svg id="Layer_2" xmlns="http://www.w3.org/2000/svg" viewBox="0 0 140 75.16"><defs><style>.cls-1{fill:#fff;}.cls-2{fill:#f8652d;}.cls-3{fill:#00bf82;}.cls-4{fill:#00abc4;}.cls-5{fill:none;stroke:#fff;stroke-miterlimit:10;}.cls-6{fill:#ff4947;}.cls-7{fill:#bb115d;}.cls-8{fill:#45ae6c;}.cls-9{fill:#ff9c39;}</style></defs><g id="Layer_1-2"><g><path class="cls-8" d="M55.72,16.66C55.72,6.01,45.73,0,35.93,0,18.76,0,9.39,18.52,10.7,47.25c.7,15.25,8.48,22.85,17.8,22.85,23.08,0,17.24-23.49,19.67-32.68,2.08-7.86,7.56-11.05,7.56-20.77Zm-11.7,19.69c-.67,2.55-.81,5.69-.95,9.01-.21,4.93-.45,10.53-2.47,14.52-.84,1.74-2.18,3.2-3.85,4.17-2.05,1.18-4.83,1.78-8.25,1.78s-6.55-1.45-8.85-4.18c-2.77-3.3-4.38-8.33-4.67-14.59-.41-8.86,.23-16.7,1.89-23.29,1.57-6.22,3.97-11.07,7.16-14.4,3.22-3.37,7.23-5.08,11.9-5.08,4.09,0,8.08,1.26,10.98,3.46,3.01,2.3,4.54,5.28,4.54,8.91,0,4.73-1.53,7.41-3.46,10.8-1.41,2.43-2.99,5.21-3.96,8.88h0Z"/><path class="cls-8" d="M41.13,10.95c-3.7,0-6.71,3-6.71,6.7,0,3.7,3,6.71,6.7,6.71,3.7,0,6.71-3,6.71-6.7h0c0-3.71-3-6.71-6.7-6.71Zm0,9.98c-1.81,0-3.28-1.46-3.28-3.27,0-1.81,1.46-3.28,3.27-3.28,1.81,0,3.28,1.46,3.28,3.27h0c0,1.81-1.47,3.27-3.27,3.28Z"/><path class="cls-8" d="M29.44,10.29c-1.45,0-2.63,1.18-2.63,2.63,0,1.45,1.18,2.63,2.63,2.63,1.45,0,2.63-1.18,2.63-2.63h0c0-1.45-1.17-2.62-2.62-2.63,0,0,0,0,0,0Z"/><path class="cls-8" d="M93.99,52.72c-.44-.26-.94-.39-1.46-.39h-6.69c-1.43,0-2.59-1.16-2.59-2.59,0,0,0,0,0,0V29.31c0-1.43,1.16-2.59,2.59-2.59h6.69c.51,0,1.01-.13,1.46-.39,.87-.5,1.17-1.62,.67-2.49l-2.46-4.27c-.5-.87-1.62-1.17-2.49-.67l-5.43,3.13c-.74,.43-1.68,.28-2.25-.35-.58-.66-1.25-1.22-1.85-1.87-.44-.58-.49-1.38-.13-2.01l3.13-5.42c.5-.87,.2-1.98-.67-2.49l-4.26-2.46c-.87-.51-1.99-.21-2.49,.66l-3.13,5.42c-.42,.74-1.3,1.08-2.11,.83-.73-.24-1.49-.43-2.25-.6-.83-.19-1.42-.93-1.42-1.78V5.71c0-1.01-.82-1.82-1.82-1.82h-4.93c-1.01,0-1.82,.82-1.82,1.82h0v10.95c0,2.31-.33,4.61-.99,6.83-.1,.32,.08,.66,.4,.75,.11,.03,.24,.03,.35,0,15.71-4.4,27.14,14.29,16.1,26.25h0c-6.16,6.76-17.59,6.56-23.52-.39-.22-.25-.6-.27-.85-.05-.12,.1-.19,.25-.2,.41-.43,6.37-1.98,13.72-7.01,18.08-.16,.14-.18,.38-.04,.55,.03,.03,.06,.06,.1,.08l4.27,2.46c.87,.5,1.99,.21,2.49-.66,0,0,0,0,0,0l3.13-5.42c.42-.74,1.3-1.08,2.11-.83,.73,.23,1.49,.43,2.25,.6,.83,.19,1.42,.93,1.42,1.78v6.25c0,1.01,.82,1.82,1.82,1.82h4.93c1.01,0,1.82-.82,1.82-1.82h0v-6.25c0-.85,.59-1.59,1.42-1.78,.76-.17,1.51-.37,2.25-.6,.81-.25,1.69,.09,2.11,.83l3.13,5.42c.5,.87,1.62,1.17,2.49,.67,0,0,0,0,0,0l4.27-2.46c.87-.5,1.17-1.62,.67-2.49l-3.13-5.42c-.42-.74-.28-1.67,.34-2.25,.57-.52,1.11-1.06,1.64-1.63,.58-.63,1.51-.77,2.25-.35l5.42,3.13c.87,.5,1.99,.2,2.49-.67l2.46-4.27c.5-.87,.2-1.98-.67-2.49Z"/><rect class="cls-1" y="37.27" width="6.13" height="13.3" rx=".91" ry=".91"/><path class="cls-1" d="M39.42,37.97h-8.73c-.5,0-.91,.4-.91,.91,0,0,0,0,0,0v2.76c0,.5,.4,.91,.91,.91,0,0,0,0,0,0h3.66v1.65c0,.28-.13,.55-.35,.72-1.07,.82-2.17,1.2-4.23,1.2-3.01,.04-5.28-2.12-5.1-6.68,0-3.8,1.29-6.38,4.9-6.49,1.66-.03,3.01,.68,3.66,2.04,.15,.32,.47,.53,.83,.53h5c.5,0,.91-.41,.91-.91,0-.06,0-.12-.02-.18-.44-2.24-2.38-4.65-5.14-5.69-2.45-.95-8.68-.95-11.09,.41-5.98,2.6-7.25,11.05-4.51,16.44,1.8,3.94,6.12,5.37,10.43,5.37,5,0,8.17-1.88,9.68-3.07,.65-.52,1.03-1.31,1.03-2.14v-6.88c0-.5-.4-.91-.91-.91,0,0,0,0,0,0Z"/><path class="cls-1" d="M70.96,28.48h-16.8c-.5,0-.91,.4-.91,.91,0,0,0,0,0,0v20.27c0,.5,.4,.91,.91,.91,0,0,0,0,0,0h16.8c.5,0,.91-.4,.91-.91,0,0,0,0,0,0v-3.18c0-.5-.41-.91-.91-.91h-10.42c-.25,0-.46-.2-.46-.46h0v-3.45c0-.25,.2-.46,.46-.46h9.26c.5,0,.91-.41,.91-.91v-2.68c0-.5-.41-.91-.91-.91h-9.26c-.25,0-.45-.2-.46-.46v-2.6c0-.25,.2-.46,.46-.46h10.42c.5,0,.91-.41,.91-.91h0v-2.88c0-.5-.39-.91-.9-.92,0,0,0,0-.01,0Z"/><rect class="cls-1" y="31.19" width="6.13" height="4.17" rx=".91" ry=".91"/><path class="cls-1" d="M108.97,28.48h-7.35c-.42,0-.78,.28-.88,.69l-2.96,11.61c-.04,.16-.2,.26-.37,.22-.11-.03-.2-.11-.22-.22l-2.99-11.62c-.1-.4-.47-.68-.88-.68h-7.35c-.5,0-.91,.41-.91,.91h0v20.28c0,.5,.41,.91,.91,.91h3.77c.5,0,.91-.41,.91-.91v-13.52c0-.17,.14-.3,.3-.3,.14,0,.26,.09,.29,.23l3.53,13.82c.1,.4,.47,.69,.88,.69h3.64c.42,0,.78-.28,.88-.69l3.54-13.82c.04-.16,.21-.26,.37-.22,.13,.03,.23,.16,.23,.29v13.52c0,.5,.4,.91,.91,.91,0,0,0,0,0,0h3.76c.5,0,.91-.41,.91-.91h0V29.4c0-.5-.4-.92-.9-.92,0,0-.01,0-.02,0Z"/><g><path class="cls-1" d="M186.15,44.36h.21l-.64,5.52c-1.53,.64-4.92,1.36-7.89,1.36-9.46,0-14.3-6.32-14.3-15.23s4.96-16.29,14.43-16.29c3.39,0,6.07,.72,7.47,1.23l.55,5.6h-.21c-1.74-.64-4.71-1.32-7-1.32-4.84,0-8.44,3.01-8.44,10.23,0,4.33,1.15,10.27,8.57,10.27,2.46,0,5.3-.59,7.26-1.36Z"/><path class="cls-1" d="M188.62,40.75c0-6.62,3.99-10.99,11.16-10.99s10.18,4.79,10.18,10.35c0,6.66-3.56,11.12-10.82,11.12s-10.52-4.62-10.52-10.48Zm14.77-.25c0-3.31-.93-5.69-3.95-5.69s-4.24,2.04-4.24,5.73,1.23,5.77,4.12,5.77,4.07-2.16,4.07-5.81Z"/><path class="cls-1" d="M243.79,37.66v13.07h-6.32v-12.22c0-2.42-.81-3.56-2.72-3.56-2.42,0-3.44,1.74-3.44,3.61v12.18h-6.32v-12.22c0-2.42-.76-3.56-2.67-3.56-2.46,0-3.48,1.74-3.48,3.61v12.18h-6.32V30.27h5.73l.21,2.21,.13,.04c.98-1.53,2.8-2.76,5.69-2.76s4.88,1.1,5.94,3.01c1.61-2.04,4.03-3.01,6.53-3.01,4.88,0,7.04,3.01,7.04,7.89Z"/><path class="cls-1" d="M278.55,37.66v13.07h-6.32v-12.22c0-2.42-.81-3.56-2.72-3.56-2.42,0-3.44,1.74-3.44,3.61v12.18h-6.32v-12.22c0-2.42-.76-3.56-2.67-3.56-2.46,0-3.48,1.74-3.48,3.61v12.18h-6.32V30.27h5.73l.21,2.21,.13,.04c.98-1.53,2.8-2.76,5.69-2.76s4.88,1.1,5.94,3.01c1.61-2.04,4.03-3.01,6.53-3.01,4.88,0,7.04,3.01,7.04,7.89Z"/><path class="cls-1" d="M281.87,43.38v-13.11h6.32v12.22c0,2.42,.68,3.61,2.93,3.61,2.8,0,3.48-1.78,3.48-3.69v-12.14h6.32v20.45h-5.69l-.21-2.25h-.13c-.93,1.53-2.76,2.76-5.86,2.76-5.22,0-7.17-2.97-7.17-7.85Z"/><path class="cls-1" d="M323.97,37.66v13.07h-6.32v-12.22c0-2.42-.76-3.56-3.01-3.56-2.8,0-3.82,1.74-3.82,3.61v12.18h-6.32V30.27h5.73l.21,2.29,.13,.04c.93-1.57,2.93-2.84,6.03-2.84,5.26,0,7.38,3.01,7.38,7.89Z"/><path class="cls-1" d="M333.7,30.27v20.45h-6.32V30.27h6.32Z"/><path class="cls-1" d="M346.24,34.81v8.61c0,2.33,.85,2.8,2.5,2.8,.89,0,2.21-.3,3.1-.59h.21l-.64,4.84c-1.1,.42-3.39,.76-4.84,.76-4.37,0-6.66-2.04-6.66-6.79v-9.63h-3.35v-4.54h3.35v-4.71l6.32-1.4v6.11h4.96l.34,4.54h-5.3Z"/><path class="cls-1" d="M353.77,30.27h6.96l3.52,15.11h.13l3.39-15.11h6.53l-4.92,17.7c-1.61,5.86-3.39,10.48-9.5,10.48-2.04,0-3.82-.38-4.58-.72l-.3-4.67h.21c1.23,.38,2.38,.51,3.52,.51,2.42,0,3.22-.98,3.99-3.35h-3.01l-5.94-19.94Z"/><circle class="cls-7" cx="382.38" cy="50.88" r="6.1"/><circle class="cls-6" cx="388.22" cy="33.46" r="6.1"/><circle class="cls-2" cx="380.8" cy="16.48" r="6.1"/><circle class="cls-9" cx="363.16" cy="6.1" r="6.1"/><circle class="cls-3" cx="343.84" cy="7.47" r="6.1"/><circle class="cls-4" cx="330.56" cy="19.71" r="6.1"/></g></g></g></svg>