<?xml version="1.0" encoding="UTF-8"?>
<svg id="Capa_2" data-name="Capa 2" xmlns="http://www.w3.org/2000/svg" viewBox="0 0 169.9 72.6">
  <defs>
    <style>
      .cls-1 {
        fill: #404041;
      }

      .cls-2 {
        fill: #2ad39b;
      }
    </style>
  </defs>
  <g id="Layer_1" data-name="Layer 1">
    <g>
      <path class="cls-1" d="m8.8,27.6v17.8h-3.1v-17.8H0v-2.8h14.5v2.8h-5.7Z"/>
      <path class="cls-1" d="m56.9,45.4h-2.7l-4.2-14.5-4.2,14.5h-2.7l-5.4-20.7h3.3l3.6,14.8,4.1-14.8h2.5l4.1,14.8,3.6-14.8h3.3l-5.3,20.7Z"/>
      <path class="cls-1" d="m87.4,45.4v-20.6h3.1v20.7h-3.1v-.1Z"/>
      <path class="cls-1" d="m123.5,45.6c-3.1,0-5.3-.7-7.3-2.7l2.1-2.1c1.5,1.5,3.2,2,5.3,2,2.7,0,4.3-1.2,4.3-3.2,0-.9-.3-1.7-.8-2.1-.5-.5-1-.7-2.3-.9l-2.4-.3c-1.7-.2-3-.8-3.9-1.7-1-1-1.5-2.3-1.5-3.9,0-3.6,2.6-6.1,6.9-6.1,2.7,0,4.6.7,6.4,2.4l-2,2c-1.3-1.2-2.8-1.6-4.5-1.6-2.4,0-3.8,1.4-3.8,3.2,0,.8.2,1.4.8,1.9.5.5,1.4.8,2.3,1l2.4.3c1.9.3,3,.8,3.9,1.5,1.1,1,1.7,2.5,1.7,4.2-.2,3.9-3.3,6.1-7.6,6.1Z"/>
      <path class="cls-1" d="m164.2,27.6v17.8h-3.1v-17.8h-5.7v-2.8h14.5v2.8h-5.7Z"/>
      <path class="cls-2" d="m77.1,57.1c.6,0,1.2.2,1.7.7.9.9.8,2.4-.1,3.2l-.1.1c-.9.9-2.4.8-3.2-.1-.8-.9-.8-2.4.1-3.2l.1-.1c.4-.4,1-.6,1.5-.6Z"/>
      <path class="cls-2" d="m18,57.2c.5,0,1.1.2,1.5.6l.1.1.1.1c.9.8,1,2.3.2,3.2-.8.9-2.3,1-3.2.2l-.1-.1c-.9-.8-1-2.3-.2-3.2.3-.6.9-.9,1.6-.9Z"/>
      <path class="cls-2" d="m63.5,65.6c.9,0,1.8.5,2.1,1.5.5,1.2-.1,2.5-1.3,2.9l-.2.1c-1.2.4-2.5-.2-2.9-1.3-.4-1.2.1-2.5,1.3-2.9l.2-.1c.2-.1.5-.2.8-.2Z"/>
      <path class="cls-2" d="m31.6,65.7c.3,0,.5,0,.8.1l.2.1c1.2.4,1.8,1.8,1.3,2.9-.4,1.2-1.8,1.8-2.9,1.3l-.2-.1c-1.2-.4-1.8-1.8-1.3-2.9.3-.9,1.2-1.4,2.1-1.4Z"/>
      <path class="cls-2" d="m47.5,68h.2c1.3,0,2.3,1,2.3,2.3s-1,2.3-2.3,2.3h-.2c-1.3,0-2.3-1-2.3-2.3s1-2.3,2.3-2.3Z"/>
      <path class="cls-2" d="m89.5,15.5c-.6,0-1.2-.2-1.7-.7-.9-.9-.8-2.4.1-3.2l.1-.1c.9-.9,2.4-.8,3.2.1s.8,2.4-.1,3.2l-.1.1c-.4.4-1,.6-1.5.6Z"/>
      <path class="cls-2" d="m148.7,15.4c-.5,0-1.1-.2-1.5-.6l-.1-.1-.1-.1c-.9-.8-1-2.3-.2-3.2.8-.9,2.3-1,3.2-.2l.1.1c.9.8,1,2.3.2,3.2-.4.6-1,.9-1.6.9Z"/>
      <path class="cls-2" d="m103.1,7c-.9,0-1.8-.6-2.1-1.5-.5-1.2.1-2.5,1.3-2.9l.2-.1c1.2-.4,2.5.2,2.9,1.3.4,1.2-.2,2.5-1.3,2.9l-.2.1c-.2.1-.5.2-.8.2Z"/>
      <path class="cls-2" d="m135,6.9c-.3,0-.5,0-.8-.1l-.2-.1c-1.2-.4-1.8-1.8-1.3-2.9.4-1.2,1.8-1.8,2.9-1.3l.2.1c1.2.4,1.8,1.8,1.3,2.9-.3.9-1.2,1.4-2.1,1.4Z"/>
      <path class="cls-2" d="m119.1,4.6h-.2c-1.3,0-2.3-1-2.3-2.3s1-2.3,2.3-2.3h.1c1.3,0,2.3,1,2.3,2.3.1,1.3-.9,2.3-2.2,2.3Z"/>
      <path class="cls-2" d="m90.7,60.7h-2.7v-6.6h2.6c1.2,0,2,.7,2,1.8,0,.7-.4,1.2-.9,1.4.5.2,1,.7,1,1.5,0,1.3-.9,1.9-2,1.9Zm-.2-5.7h-1.5v1.9h1.5c.6,0,1.1-.3,1.1-.9-.1-.6-.5-1-1.1-1Zm.1,2.8h-1.6v2h1.6c.7,0,1.1-.4,1.1-1s-.4-1-1.1-1Z"/>
      <path class="cls-2" d="m96.9,60.7v-6.6h1v6.6h-1Z"/>
      <path class="cls-2" d="m106.3,60.1c-.5.5-1,.7-1.7.7s-1.3-.2-1.7-.7c-.6-.6-.6-1.4-.6-2.6s0-2,.6-2.6c.5-.5,1-.7,1.7-.7s1.3.2,1.7.7c.6.6.6,1.4.6,2.6s0,1.9-.6,2.6Zm-.8-4.7c-.2-.2-.6-.4-1-.4s-.7.2-1,.4c-.3.4-.4.7-.4,2s.1,1.7.4,2c.2.2.6.4,1,.4s.7-.2,1-.4c.3-.4.4-.7.4-2s-.1-1.7-.4-2Z"/>
      <path class="cls-2" d="m112.9,60.8c-1,0-1.7-.2-2.3-.9l.7-.7c.5.5,1,.6,1.7.6.9,0,1.4-.4,1.4-1,0-.3-.1-.5-.3-.7s-.3-.2-.7-.3l-.8-.1c-.5-.1-1-.3-1.2-.5-.3-.3-.5-.7-.5-1.3,0-1.1.8-1.9,2.2-1.9.9,0,1.5.2,2,.7l-.6.6c-.4-.4-.9-.5-1.4-.5-.8,0-1.2.4-1.2,1,0,.2.1.5.2.6.2.1.4.3.7.3l.7.1c.6.1,1,.2,1.2.5.4.3.5.8.5,1.4.1,1.3-.9,2.1-2.3,2.1Z"/>
      <path class="cls-2" d="m121.5,60.8c-.7,0-1.3-.2-1.7-.7-.6-.6-.6-1.4-.6-2.6s0-2,.6-2.6c.5-.5,1-.7,1.7-.7,1.2,0,2.1.7,2.4,2h-1c-.2-.7-.6-1.1-1.3-1.1-.4,0-.7.1-1,.4-.3.4-.4.7-.4,2.1,0,1.3.1,1.7.4,2.1.2.2.6.4,1,.4.7,0,1.2-.5,1.3-1.1h1c-.3,1.1-1.2,1.8-2.4,1.8Z"/>
      <path class="cls-2" d="m128,60.7v-6.6h1v6.6h-1Z"/>
      <path class="cls-2" d="m133.5,60.7v-6.6h4.2v.9h-3.2v1.9h2.7v.9h-2.7v2h3.2v.9s-4.2,0-4.2,0Z"/>
      <path class="cls-2" d="m145.9,60.7l-3-4.6v4.6h-1v-6.6h.9l3,4.6v-4.6h1v6.6h-.9Z"/>
      <path class="cls-2" d="m153.4,60.8c-.7,0-1.3-.2-1.7-.7-.6-.6-.6-1.4-.6-2.6s0-2,.6-2.6c.5-.5,1-.7,1.7-.7,1.2,0,2.1.7,2.3,2h-1c-.2-.7-.6-1.1-1.3-1.1-.4,0-.7.1-1,.4-.3.4-.4.7-.4,2.1,0,1.3.1,1.7.4,2.1.2.2.6.4,1,.4.7,0,1.2-.5,1.3-1.1h1c-.2,1.1-1.1,1.8-2.3,1.8Z"/>
      <path class="cls-2" d="m159.9,60.7v-6.6h4.2v.9h-3.2v1.9h2.7v.9h-2.7v2h3.2v.9s-4.2,0-4.2,0Z"/>
    </g>
  </g>
</svg>